<?xml version="1.0" encoding="UTF-8"?> <svg xmlns="http://www.w3.org/2000/svg" width="398" height="66" viewBox="0 0 398 66" fill="none"><path d="M112.808 48.4177C149.708 48.3977 186.608 48.3777 223.508 48.3577C260.408 48.3376 297.308 48.3177 334.208 48.2977C355.028 48.2877 375.848 48.2776 396.678 48.2576C397.338 48.2576 397.658 47.4372 397.208 46.977C381.338 30.4187 356.768 26.1366 335.348 21.3842C309.258 15.6013 282.908 11.0291 256.398 7.6474C229.828 4.26571 203.108 2.09464 176.348 1.15417C149.628 0.213697 122.848 0.473822 96.1576 2.0246C83.2476 2.77497 70.3475 3.89553 57.5775 5.90654C51.0575 6.93705 44.5776 8.19768 38.1576 9.77847C32.5076 11.1692 26.7776 12.6498 21.3776 14.8509C13.4176 18.1126 4.67753 23.3152 1.25753 31.6494C-2.04247 39.6634 1.45754 48.0175 8.19754 52.9C15.6675 58.3027 25.1975 59.9935 34.1375 61.1341C47.4975 62.8349 60.9176 63.9955 74.3676 64.6558C101.238 65.9865 128.188 65.3462 155.018 63.3152C181.798 61.2842 208.458 57.8824 234.978 53.6403C261.888 49.3382 288.648 44.1857 315.338 38.7029C321.768 37.3823 328.198 36.0416 334.628 34.6809C335.568 34.4808 335.168 33.04 334.228 33.2301C308.468 38.6528 282.668 43.8855 256.748 48.4578C230.648 53.0601 204.428 56.992 178.058 59.7333C152.038 62.4347 125.878 63.9855 99.7075 63.8355C86.6475 63.7654 73.5975 63.2651 60.5675 62.2847C54.0475 61.7944 47.5276 61.1841 41.0276 60.4438C35.4976 59.8135 29.9176 59.2531 24.4876 58.0025C16.3776 56.1416 6.56757 52.5999 2.85757 44.4358C-1.46243 34.941 5.04758 26.1266 12.7476 21.0141C21.9976 14.871 33.3276 12.2697 44.0276 9.93858C56.6476 7.18721 69.4775 5.5463 82.3375 4.46576C108.108 2.30468 134.068 1.78441 159.918 2.20462C185.928 2.62483 211.928 4.21561 237.798 6.94697C263.858 9.69835 289.788 13.6303 315.498 18.7129C327.998 21.1841 340.468 23.8854 352.828 26.957C363.408 29.5883 374.048 32.7199 383.548 38.1927C388.198 40.874 392.458 44.1256 396.168 47.9975C396.348 47.5673 396.518 47.147 396.698 46.7168C359.798 46.7368 322.898 46.7569 285.998 46.7769C249.098 46.7969 212.198 46.8169 175.298 46.8369C154.478 46.8469 133.658 46.8569 112.828 46.8769C111.848 46.917 111.848 48.4177 112.808 48.4177Z" fill="black"></path></svg> 