<svg width="361" height="97" viewBox="0 0 361 97" fill="none" xmlns="http://www.w3.org/2000/svg">
<path d="M282.35 0.912253C246.94 3.04261 211.48 1.33031 176.05 0.733011C141.3 0.14567 106.26 0.593686 72.0103 7.12412C63.5003 8.74677 55.0703 10.7377 46.7603 13.1767C39.5903 15.2772 32.4503 17.5867 25.7203 20.8618C14.7503 26.2076 3.19022 34.7192 0.540225 47.3321C-2.33978 61.04 6.6903 73.7723 18.2403 80.3525C25.4503 84.4639 33.6703 86.5047 41.8203 87.7491C50.4603 89.0631 59.2102 89.7102 67.9102 90.4668C105.31 93.732 142.84 95.6533 180.39 95.9619C218.03 96.2705 255.69 94.9565 293.19 91.751C302.51 90.9546 311.81 90.0387 321.1 89.0134C329.8 88.0477 338.69 87.3508 347.29 85.6983C353.83 84.444 359.65 80.9598 360.19 73.7723C360.71 67.003 356.81 60.5124 352.33 55.7539C347.42 50.5375 341.14 46.7647 334.69 43.7384C327.47 40.3537 319.89 37.6658 312.32 35.197C295.71 29.8014 278.6 26.0385 261.34 23.4303C226.85 18.2239 191.87 17.527 157.05 17.4474C128.63 17.3876 97.5303 17.1985 72.0203 31.5037C66.1603 34.7988 60.7702 38.8703 56.0602 43.6487C55.3802 44.3356 56.4403 45.3909 57.1203 44.704C77.3603 24.167 107.64 20.0356 135.19 19.1496C151 18.6419 166.86 18.8809 182.67 19.1596C199.76 19.4582 216.85 20.1352 233.88 21.6583C250.82 23.1714 267.71 25.5109 284.32 29.1743C300.43 32.7183 316.59 37.3373 331.7 44.0071C338.21 46.8741 344.61 50.3783 349.79 55.306C354.8 60.0744 359.51 67.0328 358.65 74.28C357.59 83.2096 347.77 84.245 340.6 85.1708C331.67 86.3256 322.73 87.3707 313.78 88.3065C277.63 92.0794 241.29 94.0406 204.94 94.4388C168.68 94.837 132.41 93.6722 96.2403 91.1835C87.1403 90.5563 78.0403 89.8495 68.9503 89.0631C60.1403 88.2965 51.2703 87.6694 42.5303 86.3554C27.6203 84.1255 11.8103 78.5607 4.45026 64.3849C1.27026 58.2527 0.580293 51.1648 2.86029 44.6244C4.95029 38.6315 9.28025 33.6839 14.1902 29.7616C25.6602 20.5931 40.3903 16.2827 54.3803 12.6292C87.1603 4.07794 121.2 2.09691 154.95 2.05709C189.1 2.01727 223.23 3.92856 257.38 3.36113C265.71 3.22176 274.03 2.92317 282.35 2.42542C283.31 2.34578 283.31 0.852523 282.35 0.912253Z" fill="black"/>
</svg>
