<svg width="1006" height="225" viewBox="0 0 1006 225" fill="none" xmlns="http://www.w3.org/2000/svg">
<path d="M783.055 138.157C785.788 118.209 803.07 105.443 821.299 100.811C841.49 95.6728 862.968 100.822 880.53 111.819C889.709 117.566 897.884 124.935 904.462 133.616C909.473 140.218 917.663 153.215 910.945 161.313C906.398 166.806 898.825 163.527 893.437 161.309C888.236 159.164 883.185 156.673 878.291 153.867C869.533 148.847 861.322 142.846 853.837 136.028C838.801 122.336 826.663 105.404 818.628 86.6176C815.634 79.6044 804.752 56.1702 817.58 53.3209C823.374 52.03 829.204 56.7232 833.283 60.2907C837.524 64.0105 841.402 68.1341 844.88 72.5879C857.807 89.204 866.22 111.802 864.593 133.129C863.801 143.49 856.308 158.963 844.037 150.117C834.973 143.586 828.483 131.01 824.17 120.908C819.599 110.21 814.412 95.1273 818 83.5211C821.441 72.3729 833.186 68.2774 843.481 66.4469C867.087 62.2545 892.136 63.7692 915.416 69.4991C937.281 74.8862 959.629 84.0106 977.396 98.3108C985.461 104.8 992.728 112.813 996.742 122.541C997.554 124.502 999.127 127.709 999.06 129.979C998.99 132.483 999.072 131.727 996.396 132.097C995.143 132.272 993.685 132.18 992.441 132.214C985.856 132.409 979.271 132.594 972.676 132.778C867.94 135.625 763.154 136.509 658.368 135.432C553.25 134.355 448.144 131.298 343.129 126.267C330.285 125.652 317.454 125.007 304.614 124.331C304.656 124.832 304.688 125.331 304.73 125.832C359.963 107.724 418.645 108.348 476.131 109.76C502.932 110.421 530.124 110.902 556.341 117.325C569.024 120.428 581.426 124.976 592.76 131.6C594.245 132.465 600.25 135.108 600.169 137.083C600.078 139.058 594.894 141.971 593.478 142.735C587.846 145.773 581.243 146.648 574.974 147.279C514.146 153.457 452.956 157.164 391.894 160.209C330.52 163.264 269.077 165.046 207.615 165.557C173.616 165.836 139.609 165.728 105.613 165.225C71.2672 164.72 35.7966 165.86 2.23065 157.168C1.30215 156.927 0.810336 158.368 1.74883 158.61C20.7443 163.532 40.2574 165.125 59.7728 165.784C80.248 166.483 100.739 166.716 121.221 166.938C161.763 167.396 202.307 167.285 242.831 166.635C324.873 165.306 406.873 161.699 488.698 155.827C510.936 154.23 533.153 152.469 555.359 150.544C565.168 149.689 575.342 149.476 584.974 147.309C591.825 145.77 598.144 142.816 602.17 136.792C602.399 136.451 602.296 135.967 601.959 135.733C570.688 113.819 531.925 110.061 495.058 108.757C454.67 107.334 413.897 106.171 373.654 110.21C350.151 112.571 326.885 116.958 304.413 124.329C303.658 124.576 303.62 125.782 304.53 125.829C395.05 130.569 485.631 133.87 576.245 135.69C666.519 137.499 756.825 137.857 847.092 136.751C898.158 136.124 949.22 135.03 1000.27 133.478C1000.77 133.459 1001.12 133.085 1001.04 132.562C996.565 104.259 967.995 87.6141 944.221 77.486C914.681 64.903 881.957 60.143 850.215 63.9455C838.996 65.2913 824.859 67.7231 818.562 78.4987C811.621 90.3916 817.198 107.459 821.887 119.251C824.61 126.105 828.102 132.632 832.261 138.703C835.957 144.094 840.499 151.012 846.837 153.442C857.196 157.425 863.677 146.59 865.46 137.856C868.027 125.332 865.07 110.867 860.936 98.9983C856.31 85.7075 848.753 73.3902 838.869 63.435C833.207 57.7265 819.279 45.0084 812.005 55.3265C808.869 59.7807 810.144 65.9851 811.505 70.8542C813.332 77.4081 815.717 83.8346 818.517 90.0232C829.796 114.945 848.35 136.475 871.143 151.243C876.809 154.921 882.75 158.179 888.897 160.963C894.194 163.368 900.839 166.934 906.818 165.573C916.969 163.256 915.353 150.277 912.153 142.997C906.945 131.162 896.226 120.901 885.914 113.579C874.599 105.535 861.497 100.08 847.844 97.9818C825.628 94.5633 798.312 102.727 786.494 123.311C783.873 127.869 782.311 132.839 781.597 138.065C781.423 139.029 782.92 139.123 783.055 138.157Z" fill="black"/>
</svg>
