<svg width="774" height="71" viewBox="0 0 774 71" fill="none" xmlns="http://www.w3.org/2000/svg">
<path d="M232.947 22.3508C300.437 22.3216 367.927 22.2925 435.417 22.2633C502.907 22.2342 570.397 22.205 637.887 22.1759C654.157 22.1662 670.567 21.583 686.817 22.38C701.597 23.1089 717.957 26.8894 726.737 39.6016C727.467 40.6513 728.117 41.7495 728.697 42.8866C729.877 45.2288 730.417 45.7829 728.037 46.745C724.157 48.3195 719.667 49.097 715.577 50.0203C707.717 51.7988 699.737 53.0914 691.737 54.0924C675.627 56.1139 659.367 57.183 643.167 58.3007C576.557 62.9074 509.787 64.6179 443.027 65.5801C375.697 66.552 308.367 67.0864 241.037 67.689C173.577 68.2915 106.117 68.8455 38.657 69.3898C31.067 69.4481 23.4071 69.6522 15.8771 68.5832C12.4271 68.0972 8.99706 67.3392 5.72705 66.1632C3.25705 65.2788 1.13704 64.9775 2.46704 62.2562C3.34704 60.4582 4.60704 58.8449 6.02704 57.4163C10.597 52.8387 16.8971 50.0397 22.7271 47.3087C30.0771 43.8682 37.6071 40.7972 45.2471 38.0176C74.3671 27.463 104.967 21.34 135.537 16.296C200.957 5.50811 267.417 0.736215 333.757 1.99966C366.587 2.63138 399.377 4.73065 432.007 8.32661C465.277 11.9906 498.317 17.3068 531.457 21.8066C563.377 26.1509 595.467 29.7566 627.717 30.3494C643.847 30.641 659.937 30.0287 676.017 28.7653C692.197 27.4921 708.357 25.8301 724.587 25.4317C740.587 25.0332 756.597 25.976 772.197 29.6205C773.137 29.8441 773.537 28.4348 772.597 28.2112C747.667 22.38 721.977 23.556 696.647 25.5969C670.397 27.7059 644.387 29.5816 618.027 28.6195C564.587 26.6854 511.897 17.1221 459.007 10.1537C406.777 3.27284 354.147 -0.148219 301.427 0.396034C248.727 0.950005 196.077 5.30408 144.047 13.4484C119.037 17.3651 94.027 21.9037 69.657 28.7069C57.687 32.0502 45.8671 35.9474 34.3771 40.6319C24.9871 44.4611 14.3271 48.3486 6.54706 54.9282C3.44706 57.5523 1.14704 60.7304 0.0270422 64.5887C-0.0629578 64.8803 0.077069 65.269 0.367069 65.4148C9.26707 69.798 19.1071 70.7407 28.9471 70.8573C40.9071 70.9934 52.877 70.7115 64.837 70.6143C88.947 70.42 113.057 70.2256 137.167 70.0215C185.897 69.6133 234.637 69.1955 283.367 68.7387C380.397 67.8251 477.537 67.7181 574.497 63.539C601.477 62.3825 628.447 60.8664 655.377 58.8546C680.887 56.9497 706.717 55.0643 731.177 47.2698C731.547 47.1532 731.827 46.7645 731.697 46.3757C722.397 17.8511 684.407 20.6694 660.217 20.6792C625.577 20.6986 590.927 20.7084 556.287 20.7278C487.517 20.757 418.737 20.7861 349.967 20.8152C310.957 20.8347 271.957 20.8542 232.947 20.8639C231.977 20.893 231.977 22.3508 232.947 22.3508Z" fill="black"/>
</svg>
