<?xml version="1.0" encoding="UTF-8"?> <svg xmlns="http://www.w3.org/2000/svg" width="1084" height="199" viewBox="0 0 1084 199" fill="none"><path d="M108.455 157.022C212.272 155.492 316.099 153.95 419.916 152.419C523.734 150.888 627.561 149.347 731.378 147.816C789.572 146.955 847.775 146.093 905.969 145.232C906.594 145.22 906.869 144.56 906.632 144.009C883.286 91.4885 842.335 48.4848 792.933 23.0805C780.821 16.8531 768.209 11.6859 755.271 7.70784C748.572 5.64913 741.781 3.904 734.929 2.50474C727.964 1.08415 720.487 -0.270462 713.561 2.10133C707.096 4.30996 702.073 9.45409 697.049 14.0256C690.428 20.0595 683.51 25.7266 676.354 31.0487C662.945 41.0207 648.774 49.7844 634.212 57.7495C603.766 74.4067 571.776 88.1072 539.764 101.008C507.321 114.083 474.404 125.851 441.105 136.292C374.517 157.161 306.42 172.741 237.615 182.8C202.612 187.918 167.432 191.62 132.157 193.875C114.822 194.986 97.4655 195.751 80.0981 196.159C64.0532 196.543 47.4871 197.727 31.4989 195.874C17.3977 194.244 0.43379 186.915 2.10695 168.878C3.93037 149.209 22.8587 140.477 38.7624 136.431C74.2383 127.411 111.08 124.062 147.432 122.042C221.305 117.934 295.476 118.451 369.404 120.729C443.691 123.028 517.89 127.531 592.04 132.715C666.62 137.931 741.151 143.838 815.731 148.892C852.831 151.408 889.941 153.708 927.071 155.598C962.519 157.405 998.161 158.974 1033.55 155.174C1050.17 153.395 1066.64 150.363 1082.78 145.776C1083.73 145.504 1083.33 143.938 1082.37 144.211C1046.82 154.31 1009.95 156.407 973.291 155.759C936.451 155.111 899.607 152.594 862.825 150.315C787.498 145.652 712.249 139.779 636.982 134.295C561.755 128.822 486.498 123.716 411.143 120.609C335.87 117.491 260.488 116.362 185.186 118.808C148.873 119.985 112.5 121.854 76.5144 127.395C59.8283 129.963 42.0344 132.317 26.1973 138.697C14.3553 143.468 3.43511 152.484 0.922273 166.276C-4.64017 196.921 33.0008 198.172 52.03 198.138C87.1049 198.066 122.166 196.568 157.133 193.654C226.788 187.839 296.032 176.428 364.044 159.574C432.65 142.567 500.013 120.032 565.325 92.1309C596.189 78.9411 627.009 65.0058 655.689 47.0561C669.552 38.3796 682.881 28.7103 695.232 17.7791C702.037 11.7556 708.45 4.33925 717.633 2.83732C726.058 1.46683 734.953 4.01728 743.149 6.05084C799.703 20.0608 850.699 56.882 884.262 106.764C892.336 118.771 899.336 131.526 905.26 144.856C905.485 144.444 905.699 144.044 905.924 143.633C802.107 145.164 698.279 146.705 594.462 148.236C490.645 149.767 386.818 151.309 283.001 152.839C224.807 153.701 166.604 154.562 108.41 155.423C107.457 155.415 107.46 157.036 108.455 157.022Z" fill="black"></path></svg> 